<svg xmlns="http://www.w3.org/2000/svg" version="1.1" xmlns:xlink="http://www.w3.org/1999/xlink" xmlns:svgjs="http://svgjs.com/svgjs" width="500" height="500"><svg xmlns="http://www.w3.org/2000/svg" viewBox="0 0 500 500">

<path d="m 28.039656,498.8409 c -3.571337,-1.24784 -6.879676,-3.62566 -9.393564,-6.75148 -4.322094,-5.37417 -4.112749,6.94759 -4.112749,-242.07061 0,-257.1966243 -0.448656,-237.57047 5.569438,-243.6312352 C 26.43909,0.00633865 21.57804,0.44326844 89.084636,0.18722181 L 149.57768,-0.04222305 V 94.770555 c 0,87.642065 0.10948,95.008255 1.44751,97.397405 1.73237,3.09329 6.81522,7.60421 9.93634,8.81828 3.1727,1.23414 171.77235,1.21618 174.94984,-0.0186 1.26418,-0.49127 3.82977,-2.2463 5.70132,-3.90006 6.48752,-5.73257 6.07943,0.98199 6.29314,-103.545197 l 0.1913,-93.56099104 60.49304,0.22765735 C 476.09728,0.4430631 471.23558,0.00620156 477.57203,6.3875748 483.59011,12.448329 483.14147,-7.1758104 483.14147,250 c 0,257.17581 0.44864,237.55167 -5.56944,243.61243 -6.33645,6.38137 -1.47475,5.94451 -68.98186,6.19856 l -60.49304,0.22766 -0.1913,-93.56099 c -0.21371,-104.52719 0.19438,-97.81263 -6.29314,-103.5452 -1.87155,-1.65376 -4.43714,-3.40879 -5.70132,-3.90006 -3.17749,-1.23482 -171.77714,-1.25278 -174.94984,-0.0186 -3.12112,1.21407 -8.20397,5.72499 -9.93634,8.81828 -1.33803,2.38914 -1.44751,9.75408 -1.44751,97.37622 v 94.7916 L 90.362658,499.9634 C 43.937472,499.9347 30.47634,499.69229 28.039656,498.8409 Z" fill="#00386c"></path>

<path d="m 173.40555,497.70833 c -3.47081,-1.72099 -5.25925,-3.3129 -7.1819,-6.39268 l -2.56019,-4.10103 -0.23565,-82.14897 c -0.26013,-90.68522 -0.51904,-86.03005 5.09722,-91.64853 5.87764,-5.87998 0.39117,-5.47546 77.74584,-5.73234 49.01327,-0.16276 71.19457,0.0458 74.41452,0.69956 5.20884,1.05764 9.71564,4.78779 12.55726,10.3933 1.56116,3.07959 1.69238,5.42892 1.91842,34.34736 l 0.24264,31.04167 H 285.1052 234.80669 V 403.75 423.33333 h 50.26888 50.26887 v 29.85155 c 0,25.45601 -0.20532,30.44093 -1.3944,33.85417 -1.80913,5.19307 -7.34729,10.8363 -11.81183,12.03591 -2.34815,0.63095 -25.28753,0.91719 -73.7595,0.92039 l -70.35145,0.005 z m 3.69849,-306.01745 c -5.40086,-1.25505 -10.50762,-5.81686 -12.62102,-11.27421 -1.12734,-2.91111 -1.261,-13.73897 -1.05521,-85.482313 l 0.23565,-82.14898 2.56019,-4.101022 c 1.92265,-3.0797821 3.71109,-4.671694 7.1819,-6.392688 L 178.02726,0 248.37871,0.0046 c 48.47197,0.0032 71.41135,0.289446 73.7595,0.920389 4.46454,1.199616 10.0027,6.8428469 11.81183,12.035916 1.18908,3.413241 1.3944,8.398157 1.3944,33.854164 v 29.851548 h -50.26887 -50.26888 v 19.58333 19.583333 h 50.29851 50.29851 l -0.24264,31.04167 c -0.22604,28.91844 -0.35726,31.26777 -1.91842,34.34736 -2.77963,5.48322 -7.33448,9.3076 -12.33452,10.3564 -5.07745,1.06504 -139.25323,1.16966 -143.80409,0.11212 z" fill="#cd0000"></path></svg><style>@media (prefers-color-scheme: light) { :root { filter: none; } }
@media (prefers-color-scheme: dark) { :root { filter: contrast(0.9090909090909091) brightness(1.5); } }
</style></svg>