<?xml version="1.0" standalone="no"?>
<!DOCTYPE svg PUBLIC "-//W3C//DTD SVG 20010904//EN"
 "http://www.w3.org/TR/2001/REC-SVG-20010904/DTD/svg10.dtd">
<svg version="1.0" xmlns="http://www.w3.org/2000/svg"
 width="700.000000pt" height="700.000000pt" viewBox="0 0 700.000000 700.000000"
 preserveAspectRatio="xMidYMid meet">
<metadata>
Created by potrace 1.14, written by Peter Selinger 2001-2017
</metadata>
<g transform="translate(0.000000,700.000000) scale(0.100000,-0.100000)"
fill="#000000" stroke="none">
<path d="M455 6990 c-44 -4 -94 -14 -110 -23 -45 -23 -104 -89 -116 -128 -5
-19 -14 -149 -19 -289 -12 -329 -12 -5809 -1 -6126 10 -270 14 -288 81 -347
84 -77 17 -72 962 -75 l847 -3 3 1333 3 1333 23 37 c13 20 46 54 75 75 l51 38
1221 0 1221 0 40 -27 c62 -42 92 -75 105 -115 16 -56 27 -733 28 -1776 l1
-898 843 4 c645 3 851 6 881 16 56 18 135 96 147 146 21 88 28 902 28 3335 0
2433 -7 3247 -28 3335 -12 50 -91 128 -147 146 -30 10 -234 14 -881 16 l-843
4 -1 -898 c-1 -1029 -12 -1721 -28 -1772 -12 -39 -59 -92 -111 -124 l-35 -22
-1220 0 -1221 0 -51 38 c-29 21 -62 55 -75 75 l-23 37 -3 1333 -3 1332 -782
-1 c-430 -1 -818 -5 -862 -9z"/>
<path d="M2430 6974 c-59 -33 -86 -60 -117 -111 l-24 -42 -2 -1153 c-2 -1306
-8 -1207 79 -1288 88 -81 -2 -75 1119 -75 994 0 1000 1 1045 21 53 25 112 82
136 133 21 42 32 261 33 674 l1 247 -705 0 -705 0 0 270 0 270 706 0 706 0 -4
433 c-3 413 -4 434 -24 478 -26 56 -74 111 -122 141 l-37 23 -1020 3 -1020 2
-45 -26z"/>
<path d="M2780 2691 c-215 -5 -324 -11 -345 -20 -16 -7 -51 -33 -77 -58 -38
-37 -50 -58 -60 -102 -10 -44 -13 -298 -11 -1194 l2 -1139 25 -43 c29 -49 71
-87 127 -116 38 -19 60 -19 1057 -17 l1017 3 37 23 c48 30 96 85 122 141 20
44 21 65 24 479 l4 432 -706 0 -706 0 0 270 0 270 705 0 705 0 -1 248 c-1 413
-12 631 -33 674 -25 52 -82 107 -135 131 -45 20 -64 21 -741 23 -382 1 -837
-2 -1010 -5z"/>
</g>
</svg>
