<?xml version="1.0" encoding="UTF-8" standalone="no"?>
<svg
   version="1.1"
   x="0"
   y="0"
   width="250.00002"
   height="249.99998"
   viewBox="0 0 7680.0201 7680.0192"
   id="svg2"
   xmlns="http://www.w3.org/2000/svg"
   xmlns:svg="http://www.w3.org/2000/svg">
  <defs
     id="defs2" />
  <g
     fill-rule="nonzero"
     stroke-width="5"
     stroke-linejoin="round"
     stroke-linecap="round"
     id="g2"
     transform="matrix(9.5509528,0,0,9.5187574,-931.21754,-914.27665)">
    <path
       fill="#00386c"
       stroke="#00386c"
       d="m 471.41,577 h -67.32 c -50.58,2.54 -80.56,11.24 -84.09,99.12 V 900 C 100,900 100,900 100,800 V 200 c 0,-100 0,-100 220,-100 v 223.5 c 0,82.36 33.51,96.5 84.09,99.5 h 95.46 95.46 c 51.24,-3.88 84.1,-17.14 84.1,-99.12 V 100 c 220.89,0 220,0 220,100 v 600 c 0,100 0.89,100 -220,100 V 676.12 C 679.7,588.24 646.25,580 595.01,577 h -64.89 z"
       id="path1" />
    <path
       fill="#cd0000"
       stroke="#cd0000"
       d="m 499.6,262.81 c -28.19,0 -28.19,-42.81 1.23,-42.81 h 138.38 v -57.92 c 0,-20 0,-63.53 -40,-63.53 L 410,100 c -50,0 -50,40 -50,60 v 160 c 0,20 0,63.53 50,63.53 l 189.21,0.72 c 40,0 40,-43.53 40,-63.53 v -57.91 z m 0.4,516.12 c -28.2,0 -28.2,-42.81 1.23,-42.81 H 639.6 v -57.91 c 0,-20 0,-63.53 -40,-63.53 l -189.2,1.44 c -50,0 -50,40 -50,60 v 160 c 0,20 0,63.53 50,63.53 l 189.2,0.73 c 40,0 40,-43.53 40,-63.53 v -57.92 z"
       id="path2" />
  </g>
</svg>
